# xmcd CD database file
#
# Track frame offsets:
#	150
#	11093
#	21913
#	35743
#	47908
#	60728
#	74983
#	88625
#	103063
#	118033
#	135028
#	148983
#	162580
#	175858
#	187468
#	201843
#	220168
#	232370
#	245543
#	258838
#
# Disc length: 3588 seconds
#
# Revision: 1
# Processed by: cddbd v1.5.1PL2 Copyright (c) Steve Scherf et al.
# Submitted via: CDex 1.51
#
DISCID=3f0e0214
DTITLE=Glen Campbell - The Most Of Glen Campbell
DYEAR=1900
DGENRE=Country
TTITLE0=Try A Little Kindness
TTITLE1=The World I Used To Know
TTITLE2=Where Do I Begin
TTITLE3=By The Time I Get To Phoenix
TTITLE4=Bonaparte's Retreat
TTITLE5=She Thinks I Still Care
TTITLE6=Wichita Linesman
TTITLE7=My Elusive Dreams with Bobbie Gentry
TTITLE8=Your Cheatin' Heart
TTITLE9=If You Could Read My Mind
TTITLE10=Country Boy
TTITLE11=Mary In The Morning
TTITLE12=Where's The Playground Susie
TTITLE13=Dreams Of The Everyday Housewife
TTITLE14=Rhinestone Cowboy
TTITLE15=My Way
TTITLE16=Galveston
TTITLE17=Gentle On My Mind
TTITLE18=Honey Come Back
TTITLE19=Help Me Make It Through The Night
EXTD=
EXTT0=
EXTT1=
EXTT2=
EXTT3=
EXTT4=
EXTT5=
EXTT6=
EXTT7=
EXTT8=
EXTT9=
EXTT10=
EXTT11=
EXTT12=
EXTT13=
EXTT14=
EXTT15=
EXTT16=
EXTT17=
EXTT18=
EXTT19=
PLAYORDER=
